<svg xmlns="http://www.w3.org/2000/svg" width="64" height="59.268" viewBox="0 0 64 59.268"><defs><style>.a{fill:#fff;}.b{fill:#007ccd;}.c{fill:#00b1bf;}</style></defs><g transform="translate(-156.3 -281)"><path class="a" d="M704.827,1299.4,693.4,1310.827a23.467,23.467,0,0,0,20.232,13.436V1309A10.425,10.425,0,0,1,704.827,1299.4Z" transform="translate(-518.958 -984.002)"/><path class="a" d="M1408.755,316.854l-.03-32.044h0V281l-13.605,13.605v20.111A10.424,10.424,0,0,1,1386.3,325v15.267A23.467,23.467,0,0,0,1408.755,316.854Z" transform="translate(-1188.455)"/><path class="b" d="M185.944,856.479V845.9l-13.632,13.632,0,3.141a23.351,23.351,0,0,0,.142,2.587L166.709,871l-.007,2.8-10.3,10.3v1.915Z" transform="translate(-0.097 -545.82)"/><path class="c" d="M187.395,303.5H170.7a9.869,9.869,0,0,1,1.537,5.286V309.9l-.02,16.145-5.617,5.617.014,2.776L156.3,344.758v1.908l29.548-29.541V309.8l.01-1.017A9.831,9.831,0,0,1,187.395,303.5Z" transform="translate(0 -21.74)"/></g></svg>